<svg width="168" height="168" viewBox="0 0 168 168" fill="none" xmlns="http://www.w3.org/2000/svg">
<rect x="0.5" y="0.5" width="167" height="167" fill="white" stroke="#D0D0D0"/>
<path fill-rule="evenodd" clip-rule="evenodd" d="M92.1726 85.1919H93.3139C93.3139 86.4443 93.5245 87.8892 93.8252 88.9769C94.1106 89.9764 94.8462 90.9148 95.4927 91.6301C96.6951 93.0009 98.7986 93.7756 101.098 93.7756C102.751 93.7756 104.283 93.2097 105.304 92.3908C106.386 91.5107 107.077 90.2441 107.077 88.724C107.077 87.4574 106.537 86.2955 105.816 85.5648C105.079 84.8353 103.472 83.7617 101.608 83.0463L98.9327 82.0333C96.6792 81.1691 94.6961 79.8425 93.7043 78.6206C92.7124 77.384 92.0516 75.5803 92.0516 73.8072C92.0516 71.2887 93.0879 69.2326 94.8456 67.7424C96.6044 66.267 99.4286 65.4775 102.751 65.4775C106.521 65.4775 109.136 66.1034 111.675 67.683V74.1948H110.654C110.654 73.6883 110.52 73.1812 110.52 72.9282C110.52 72.5558 110.399 72.1682 110.399 71.9152C110.399 71.6616 110.143 71.4081 110.143 71.1551C109.888 70.5292 109.498 69.7097 109.002 69.0096C107.784 67.2365 105.681 66.2376 103.382 66.2376C101.864 66.2376 100.377 66.7147 99.4292 67.4894C98.4072 68.3089 97.9124 69.6503 97.9124 71.0363C97.9124 72.1687 98.2879 73.2418 98.9333 73.9424C99.6244 74.7025 101.082 75.5073 102.87 76.2221L105.304 77.221C107.814 78.234 109.887 79.5606 111.03 80.7678C112.247 82.0344 112.938 83.7928 112.938 85.8189C112.938 88.3527 111.916 90.6471 109.887 92.1383C107.875 93.6285 105.049 94.5368 101.608 94.5368C99.9405 94.5368 97.7012 94.2239 95.2371 93.7762C94.3657 93.6279 93.2084 93.3438 92.172 92.912V85.1919H92.1726ZM116.614 85.1919H117.756C117.756 86.4443 117.966 87.8892 118.267 88.9769C118.552 89.9764 119.289 90.9148 119.935 91.6301C121.137 93.0009 123.24 93.7756 125.54 93.7756C127.192 93.7756 128.725 93.2097 129.746 92.3908C130.828 91.5107 131.519 90.2441 131.519 88.724C131.519 87.4574 130.979 86.2955 130.257 85.5648C129.521 84.8353 127.914 83.7617 126.05 83.0463L123.375 82.0333C121.121 81.1691 119.138 79.8425 118.146 78.6206C117.154 77.384 116.493 75.5803 116.493 73.8072C116.493 71.2887 117.53 69.2326 119.289 67.7424C121.046 66.267 123.87 65.4775 127.192 65.4775C130.964 65.4775 133.578 66.1034 136.118 67.683V74.1948H135.096C135.096 73.6883 134.961 73.1812 134.961 72.9282C134.961 72.5558 134.841 72.1682 134.841 71.9152C134.841 71.6616 134.585 71.4081 134.585 71.1551C134.33 70.5292 133.939 69.7097 133.443 69.0096C132.226 67.2365 130.122 66.2376 127.823 66.2376C126.305 66.2376 124.818 66.7147 123.871 67.4894C122.85 68.3089 122.354 69.6503 122.354 71.0363C122.354 72.1687 122.73 73.2418 123.375 73.9424C124.067 74.7025 125.524 75.5073 127.312 76.2221L129.746 77.221C132.256 78.234 134.329 79.5606 135.472 80.7678C136.689 82.0344 137.38 83.7928 137.38 85.8189C137.38 88.3527 136.358 90.6471 134.329 92.1383C132.316 93.6285 129.49 94.5368 126.05 94.5368C124.382 94.5368 122.143 94.2239 119.679 93.7762C118.807 93.6279 117.65 93.3438 116.614 92.912V85.1919H116.614ZM73.8199 65.203C77.6365 65.203 80.9572 66.3355 83.3763 68.3627C86.5618 70.8812 88.215 74.934 88.215 80.2392C88.215 82.2659 87.8395 84.1584 87.3287 85.9316C86.6822 87.69 85.6761 89.3437 84.5188 90.4767C81.9787 93.1299 78.2825 94.5148 73.4289 94.5148C68.9811 94.5148 65.4048 93.2493 62.9857 90.7297C60.4314 88.1959 59.1691 84.4114 59.1691 79.7321C59.1691 75.187 60.4308 71.6401 62.9857 69.1222C65.5406 66.589 69.2368 65.203 73.8199 65.203ZM73.8347 65.9631C71.2804 65.9631 69.2368 67.3338 67.9745 69.867C66.953 72.0131 66.2916 75.4405 66.2916 79.7321C66.2916 84.4114 66.953 87.9288 67.9745 90.0743C69.1164 92.4887 71.0099 93.74 73.4438 93.74C78.553 93.74 81.0771 89.0907 81.0771 79.9709C81.0771 75.1728 80.4459 71.626 79.304 69.4799C78.7927 68.4663 77.891 67.6021 76.8695 66.9461C75.8777 66.3208 74.7055 65.9631 73.6835 65.9631H73.8347ZM46.5453 79.7565C49.3552 79.7565 51.7749 80.3818 53.2923 81.649C54.8251 82.7962 55.5915 84.5552 55.5915 86.7007C55.5915 87.9673 55.2155 89.2344 54.7047 90.2481C54.0587 91.2606 53.0372 92.2742 51.8947 92.7807C50.7951 93.2324 49.6369 93.5286 48.4542 93.6608C47.177 93.9137 45.2687 94.0332 42.9849 94.0332H30.6173V93.2725H33.6681V66.4939H30.6173V65.7339H42.7286C44.5017 65.7339 46.1698 65.8533 47.4321 65.9874C49.6109 66.241 51.384 66.9858 52.6611 68.1335C53.9383 69.266 54.5695 70.905 54.5695 72.8128C54.5695 75.3313 53.4275 77.2238 51.2636 78.371C50.2415 78.8775 48.5888 79.3846 46.41 79.5035L46.5453 79.7565ZM40.3096 93.2725H42.2333C43.495 93.2725 44.5171 93.1542 45.2687 93.0048C46.0687 92.7525 46.7783 92.2765 47.3122 91.6341C48.2139 90.501 48.7252 88.8621 48.7252 86.8348C48.7252 84.6893 48.2139 82.9009 47.3122 81.8878C46.8015 81.3807 46.1709 80.8742 45.4193 80.6359C44.6375 80.3677 43.3758 80.1294 42.0832 80.1294H40.3101V93.2725H40.3096ZM40.3096 79.3841H42.0826C43.8859 79.3841 45.4188 78.877 46.2902 77.8639C47.1918 76.8509 47.7026 75.2113 47.7026 72.9164C47.7026 71.1579 47.3117 69.519 46.6805 68.5053C46.2902 67.7305 45.659 67.224 45.0279 66.9852C44.2466 66.7169 43.1047 66.4787 41.8424 66.4787H40.3096V79.3841ZM31.0162 102.737V99.1607H31.4665V100.651H33.3599V99.1607H33.8108V102.737H33.3599V101.069H31.4665V102.737H31.0162ZM46.7781 99.1607H47.2289V101.232C47.2289 101.59 47.1838 101.887 47.1091 102.082C47.0188 102.295 46.8604 102.473 46.6583 102.589C46.4477 102.722 46.1623 102.797 45.8171 102.797C45.4867 102.797 45.2008 102.738 44.9908 102.633C44.788 102.518 44.6294 102.34 44.5399 102.126C44.4873 102.008 44.4517 101.882 44.4344 101.754C44.4156 101.581 44.4055 101.406 44.4041 101.232V99.1607H44.8549V101.232C44.8549 101.545 44.8852 101.784 44.9303 101.917C44.9902 102.067 45.0958 102.186 45.2459 102.26C45.3965 102.335 45.5768 102.379 45.772 102.379C46.1327 102.379 46.3878 102.305 46.5384 102.156C46.6885 102.006 46.7787 101.679 46.7787 101.231V99.1607H46.7781ZM59.4601 101.336V100.92H60.9781V102.246C60.7378 102.425 60.497 102.573 60.2567 102.663C60.0165 102.752 59.7454 102.797 59.4903 102.797C59.1628 102.8 58.839 102.729 58.5436 102.589C58.2658 102.447 58.0398 102.223 57.8976 101.947C57.7458 101.652 57.6685 101.325 57.6722 100.994C57.6722 100.651 57.7475 100.323 57.8828 100.025C58.0328 99.7266 58.2434 99.5031 58.5139 99.3537C58.7844 99.2054 59.1 99.1301 59.4607 99.1301C59.7163 99.1301 59.9566 99.1754 60.1666 99.2495C60.3772 99.3389 60.5427 99.4584 60.6477 99.6078C60.7681 99.7561 60.8582 99.9502 60.9182 100.188L60.4976 100.293C60.4525 100.13 60.3777 99.9802 60.3024 99.8908C60.2271 99.8013 60.1072 99.7119 59.9571 99.6519C59.8001 99.5861 59.6317 99.5507 59.4612 99.5478C59.2507 99.5478 59.0555 99.5778 58.9054 99.6372C58.7564 99.6961 58.6228 99.7876 58.5145 99.9049C58.4204 100.012 58.3443 100.132 58.2891 100.263C58.1981 100.486 58.1522 100.724 58.1538 100.964C58.1538 101.276 58.2138 101.544 58.3045 101.753C58.4101 101.962 58.575 102.14 58.785 102.23C58.995 102.319 59.2358 102.379 59.4761 102.379C59.6712 102.379 59.8818 102.335 60.0621 102.275C60.2573 102.2 60.4228 102.096 60.5278 102.006V101.335H59.4601V101.336ZM71.3158 101.009C71.3158 100.428 71.4812 99.9655 71.7814 99.6383C72.097 99.3101 72.5182 99.1312 73.0283 99.1312C73.3593 99.1312 73.6595 99.2207 73.9152 99.3701C74.1708 99.5195 74.3808 99.7572 74.5161 100.025C74.6662 100.294 74.7415 100.621 74.7415 100.98C74.7415 101.337 74.6662 101.665 74.5161 101.934C74.366 102.217 74.1554 102.44 73.8997 102.574C73.6292 102.723 73.3291 102.798 73.0283 102.798C72.7118 102.799 72.4007 102.716 72.1267 102.559C71.8609 102.41 71.6503 102.18 71.5258 101.904C71.3891 101.63 71.3171 101.329 71.3152 101.024V101.009H71.3158ZM71.7968 101.023C71.7968 101.441 71.9167 101.768 72.1421 102.007C72.3675 102.246 72.6677 102.379 73.0135 102.379C73.3742 102.379 73.6749 102.26 73.8997 102.022C74.14 101.783 74.2604 101.425 74.2604 100.979C74.2604 100.696 74.2005 100.443 74.1103 100.234C74.0202 100.025 73.8547 99.8455 73.6749 99.7266C73.4946 99.6083 73.2692 99.5489 73.0283 99.5489C72.6979 99.5489 72.3977 99.6683 72.1569 99.8913C71.9161 100.114 71.7968 100.503 71.7968 101.023ZM93.2808 102.737V99.1607H94.6185C94.8895 99.1607 95.1144 99.2059 95.265 99.2659C95.43 99.3401 95.5646 99.4595 95.6554 99.6083C95.7456 99.7566 95.806 99.9355 95.806 100.085C95.806 100.234 95.7615 100.398 95.6856 100.517C95.5849 100.661 95.451 100.778 95.2953 100.86C95.5047 100.919 95.6856 101.023 95.806 101.173C95.9265 101.322 95.9864 101.515 95.9864 101.709C95.9864 101.873 95.9407 102.037 95.8802 102.17C95.8244 102.304 95.7369 102.422 95.6251 102.514C95.5201 102.588 95.37 102.648 95.2194 102.678C95.0687 102.707 94.8593 102.737 94.6333 102.737H93.2808V102.737ZM93.7311 100.681H94.5123C94.7229 100.681 94.889 100.667 94.978 100.651C95.0896 100.622 95.1864 100.553 95.2491 100.457C95.2826 100.418 95.3084 100.373 95.325 100.324C95.3392 100.264 95.3541 100.204 95.3541 100.145C95.3541 100.025 95.325 99.9213 95.265 99.8319C95.2051 99.7425 95.1144 99.6683 95.0088 99.6383C94.9038 99.6083 94.7092 99.5789 94.4536 99.5789H93.7311V100.681ZM93.7311 102.32H94.6327C94.7834 102.32 94.9038 102.306 94.9637 102.306C95.0687 102.29 95.1743 102.246 95.2348 102.216C95.3203 102.176 95.3892 102.107 95.43 102.023C95.4745 101.933 95.5047 101.828 95.5047 101.709C95.5047 101.59 95.4602 101.471 95.3997 101.381C95.3392 101.292 95.2194 101.203 95.099 101.173C94.9786 101.128 94.7834 101.098 94.5728 101.098H93.7311V102.32ZM106.774 101.009C106.774 100.428 106.939 99.9655 107.239 99.6383C107.555 99.3101 107.976 99.1312 108.487 99.1312C108.818 99.1312 109.117 99.2207 109.373 99.3701C109.629 99.5195 109.839 99.7572 109.975 100.025C110.126 100.294 110.201 100.621 110.201 100.98C110.201 101.337 110.126 101.665 109.975 101.934C109.825 102.217 109.614 102.44 109.359 102.574C109.088 102.723 108.788 102.798 108.487 102.798C108.171 102.799 107.86 102.716 107.586 102.559C107.32 102.41 107.11 102.18 106.985 101.904C106.848 101.63 106.776 101.329 106.774 101.024V101.009H106.774ZM107.255 101.023C107.255 101.441 107.375 101.768 107.601 102.007C107.826 102.246 108.127 102.379 108.471 102.379C108.832 102.379 109.133 102.26 109.358 102.022C109.599 101.783 109.72 101.425 109.72 100.979C109.72 100.696 109.66 100.443 109.569 100.234C109.478 100.025 109.314 99.8455 109.133 99.7266C108.953 99.6083 108.727 99.5489 108.486 99.5489C108.156 99.5489 107.856 99.6683 107.615 99.8913C107.374 100.114 107.255 100.503 107.255 101.023ZM120.913 101.604L121.365 101.574C121.379 101.738 121.439 101.887 121.499 101.992C121.574 102.112 121.71 102.216 121.875 102.275C121.95 102.305 122.04 102.349 122.13 102.349C122.22 102.365 122.325 102.379 122.415 102.379C122.596 102.379 122.76 102.349 122.897 102.305C123.032 102.26 123.152 102.186 123.212 102.096C123.273 102.007 123.317 101.887 123.317 101.783C123.317 101.679 123.287 101.574 123.227 101.5C123.167 101.411 123.048 101.336 122.897 101.276C122.689 101.214 122.478 101.159 122.266 101.113C121.936 101.039 121.681 100.949 121.56 100.889C121.394 100.8 121.26 100.68 121.185 100.562C121.104 100.426 121.063 100.272 121.064 100.114C121.064 99.9355 121.124 99.7719 121.215 99.6225C121.306 99.4731 121.47 99.3395 121.651 99.2654C121.859 99.1736 122.084 99.1276 122.312 99.1307C122.567 99.1307 122.808 99.176 123.003 99.2501C123.214 99.3395 123.379 99.4736 123.469 99.6383C123.585 99.799 123.648 99.9914 123.649 100.189L123.198 100.234C123.183 100.011 123.093 99.8319 122.958 99.7272C122.822 99.6089 122.597 99.5495 122.326 99.5495C122.056 99.5495 121.83 99.6089 121.711 99.6989C121.591 99.803 121.515 99.9366 121.515 100.086C121.515 100.205 121.56 100.325 121.651 100.399C121.741 100.474 121.98 100.564 122.356 100.652C122.731 100.741 123.002 100.817 123.153 100.876C123.363 100.965 123.528 101.1 123.618 101.248C123.648 101.307 123.693 101.397 123.723 101.472C123.753 101.561 123.769 101.651 123.769 101.74C123.769 101.919 123.709 102.113 123.603 102.277C123.488 102.447 123.326 102.581 123.137 102.664C122.914 102.756 122.674 102.802 122.432 102.799C122.116 102.799 121.83 102.753 121.62 102.664C121.413 102.577 121.235 102.432 121.109 102.247C121.047 102.154 120.996 102.054 120.958 101.949C120.928 101.837 120.913 101.721 120.913 101.604ZM134.527 101.604L134.979 101.574C134.993 101.738 135.053 101.887 135.113 101.992C135.188 102.112 135.324 102.216 135.489 102.275C135.563 102.305 135.654 102.349 135.744 102.349C135.834 102.365 135.939 102.379 136.029 102.379C136.209 102.379 136.374 102.349 136.511 102.305C136.645 102.26 136.766 102.186 136.826 102.096C136.887 102.007 136.931 101.887 136.931 101.783C136.931 101.679 136.901 101.574 136.841 101.5C136.781 101.411 136.662 101.336 136.511 101.276C136.303 101.214 136.092 101.159 135.88 101.113C135.55 101.039 135.295 100.949 135.174 100.889C135.009 100.8 134.874 100.68 134.799 100.562C134.719 100.426 134.677 100.272 134.678 100.114C134.678 99.9355 134.738 99.7719 134.829 99.6225C134.92 99.4731 135.084 99.3395 135.265 99.2654C135.473 99.1736 135.698 99.1276 135.926 99.1307C136.181 99.1307 136.422 99.176 136.617 99.2501C136.827 99.3395 136.992 99.4736 137.083 99.6383C137.199 99.799 137.262 99.9914 137.263 100.189L136.812 100.234C136.797 100.011 136.707 99.8319 136.572 99.7272C136.436 99.6089 136.211 99.5495 135.94 99.5495C135.67 99.5495 135.444 99.6089 135.325 99.6989C135.204 99.803 135.13 99.9366 135.13 100.086C135.13 100.205 135.174 100.325 135.264 100.399C135.355 100.474 135.594 100.564 135.97 100.652C136.345 100.741 136.616 100.817 136.766 100.876C136.977 100.965 137.142 101.1 137.232 101.248C137.262 101.307 137.307 101.397 137.337 101.472C137.367 101.561 137.383 101.651 137.383 101.74C137.383 101.919 137.323 102.113 137.217 102.277C137.102 102.447 136.94 102.581 136.751 102.664C136.528 102.756 136.288 102.802 136.046 102.799C135.73 102.799 135.444 102.753 135.234 102.664C135.027 102.577 134.85 102.432 134.723 102.247C134.661 102.154 134.611 102.054 134.573 101.949C134.542 101.837 134.526 101.721 134.527 101.604Z" fill="black"/>
</svg>
