<svg width="168" height="168" viewBox="0 0 168 168" fill="none" xmlns="http://www.w3.org/2000/svg">
<rect x="0.5" y="0.5" width="167" height="167" fill="white" stroke="#D0D0D0"/>
<path fill-rule="evenodd" clip-rule="evenodd" d="M29.6907 101.855C12.4543 96.8335 36.3499 77.439 41.247 73.2057C46.7317 69.6613 54.0769 62.8679 61.1277 67.9873C61.1277 73.2057 57.1127 70.1531 54.4677 70.1531C48.0039 73.4021 27.9271 88.4657 28.9069 96.3417C31.3551 100.082 49.9629 94.6677 54.37 93.7816C59.6586 93.1909 59.6586 93.1909 64.0658 93.1909C65.5348 95.6527 65.5348 95.6527 66.1224 97.6206C65.914 97.7321 65.7435 97.9039 65.6332 98.1138C53.1948 98.7053 41.4424 101.068 29.6907 101.855ZM129.365 99.9317C126.854 97.115 125.45 94.7521 123.981 92.2902C122.288 93.1646 121.523 94.3115 120.441 95.2384C120.098 96.4081 120.132 98.2294 119.888 99.5741C118.712 99.673 117.632 99.4537 116.458 99.5526C116.359 96.5007 116.517 93.1003 116.517 90.0484C112.893 95.955 111.172 99.296 103.926 96.7359C102.848 93.9801 102.455 92.4044 102.359 90.4351C102.064 90.4351 101.771 90.435 101.477 90.534C98.3432 95.2598 93.6422 102.349 88.0598 96.0477C82.9673 99.6917 80.2253 100.479 76.6996 95.8505C70.3342 100.085 68.0814 99.0995 66.3185 92.6029C66.6124 85.7113 67.4938 75.2746 71.3133 70.2534H72.8801L75.2306 72.9117C74.7406 76.9479 68.8651 91.519 71.8032 94.4726C78.1687 94.4726 80.2164 83.0433 90.892 86.0952C91.6124 88.0286 89.9039 94.604 93.7757 94.501C96.376 94.4318 98.9858 86.457 99.7145 84.332C101.937 83.8277 103.829 86.2031 106.179 87.8771C106.277 89.6486 106.277 90.9289 107.452 93.2919C112.937 93.2919 115.483 83.8402 117.343 79.8033C117.834 77.5393 118.421 75.2746 119.008 73.1081C120.379 72.911 121.457 71.9267 122.535 74.585C122.142 78.9172 120.6 84.8771 120.876 90.2614C123.227 88.2914 130.859 80.394 134.482 81.083C134.58 83.1505 134.58 83.1505 134.286 84.9234C130.706 86.2571 128.571 88.1524 127.336 89.4708C127.21 92.0509 132.22 95.1574 132.219 97.6082C132.217 98.3864 131.576 99.0636 130.662 99.9863C130.376 100.272 129.661 100.266 129.365 99.9317ZM134.186 99.2953C133.306 98.1145 133.306 97.9174 133.501 97.1295C135.46 96.4406 138.3 95.9474 139.867 93.8805C138.887 90.7297 134.284 92.9944 134.284 87.875C136.342 84.3299 139.867 82.8538 144.078 84.0352C144.175 84.626 144.273 85.216 144.372 85.905C141.923 86.5939 140.552 85.8061 138.887 87.0871C138.887 89.0558 141.728 88.8586 144.078 90.5319C146.233 97.1295 138.887 98.5081 134.186 99.2953ZM83.5164 95.3573C82.1692 95.403 81.3435 94.2672 81.3627 93.3887C81.4233 90.6246 85.7547 88.4927 86.8557 89.0468C86.9541 90.5236 86.846 91.8233 86.9444 93.3984C86.4545 93.7795 84.9862 95.3089 83.5164 95.3573Z" fill="black"/>
</svg>
