<svg width="22" height="20" viewBox="0 0 22 20" fill="none" xmlns="http://www.w3.org/2000/svg">
<path d="M10.998 4.10473L10.2614 3.30249C9.29832 2.25358 7.76939 1 6.132 1C4.57734 1 3.3113 1.55869 2.43222 2.47165C1.55048 3.38739 1 4.72088 1 6.3677C1 9.95861 3.69341 12.3336 6.80879 14.9897L6.80918 14.9901L6.86494 15.0377C8.26388 16.2315 9.79357 17.537 10.9811 19H10.9812M10.998 4.10473L10.2902 1.91857C9.26298 0.978857 7.79447 0 6.132 0C2.521 0 0 2.61887 0 6.3677C0 10.4984 3.131 13.1682 6.16 15.7507L6.18073 15.7684C7.60429 16.9834 9.07548 18.239 10.205 19.6306M10.998 4.10473L11.7346 3.30249C12.6969 2.25445 14.23 1 15.869 1C17.4231 1 18.6889 1.55863 19.5679 2.47161C20.4495 3.38736 21 4.72088 21 6.3677C21 9.95953 18.3048 12.3345 15.1902 14.9897M10.998 4.10473L11.706 1.91879M10.9812 19C10.9839 19.0031 10.9852 19.0033 10.9837 19.0026C10.983 19.0023 10.9819 19.0018 10.9803 19.0014L10.97 19.0097L10.205 19.6306M10.9812 19C10.9807 18.9996 10.9803 18.999 10.9798 18.9985L10.978 19H10.97C10.9727 19 10.9752 19.0003 10.9772 19.0006L10.97 19.0065L10.205 19.6306M10.9812 19H11.0159M10.205 19.6306C10.396 19.8647 10.676 20 10.97 20H11.028C11.323 20 11.602 19.8637 11.792 19.6306M11.0159 19C11.0128 19.0035 11.0114 19.0037 11.0131 19.0029C11.0141 19.0024 11.0157 19.0018 11.0179 19.0012L11.028 19.0094L11.792 19.6306M11.0159 19H11.0164L11.0161 18.9998C11.0162 18.9996 11.0164 18.9994 11.0165 18.9993M11.0159 19C11.0161 18.9998 11.0163 18.9995 11.0165 18.9993M11.792 19.6306C12.929 18.2322 14.408 16.9701 15.839 15.7507L15.8414 15.7487C18.8686 13.1679 22 10.4984 22 6.3677C22 2.61887 19.479 0 15.869 0C14.2056 0 12.7343 0.979012 11.706 1.91879M11.792 19.6306L11.028 19.0078L11.0195 19.0009C11.0218 19.0004 11.0247 19 11.028 19H11.0184L11.0169 18.9988C11.0168 18.9989 11.0166 18.9991 11.0165 18.9993M11.706 1.91879C11.7156 1.9292 11.7252 1.93955 11.7346 1.94983L10.998 2.62616L11.706 1.91879ZM11.0165 18.9993C12.2158 17.5243 13.7596 16.2088 15.1704 15.0067L15.1902 14.9897M15.1902 14.9897L15.838 15.7496L15.1904 14.9896L15.1902 14.9897Z" stroke="#333333" stroke-width="2"/>
</svg>
