<svg width="148" height="24" viewBox="0 0 148 24" fill="none" xmlns="http://www.w3.org/2000/svg">
<path fill-rule="evenodd" clip-rule="evenodd" d="M0.93742 0H22.0836C26.0888 0 29.9405 2.33485 29.9405 6.00392C29.9405 8.42745 28.178 10.851 25.41 11.4963L25.4274 11.6224C26.6053 12.0003 27.7223 12.4526 28.5134 13.3427C29.3385 14.2765 29.734 15.462 29.734 16.625C29.734 18.5302 28.7547 20.1543 27.0515 21.3609C25.247 22.629 22.926 23.3847 20.5963 23.3847H5.72578L8.33869 5.49984H0L0.93742 0V0ZM32.1499 8.24942H40.5828L39.7656 11.0358H40.0322C40.9348 9.25689 42.5676 7.87085 44.9313 7.87085H45.0088L43.9005 15.0678C43.4789 14.9559 43.0145 14.8304 42.5676 14.8304C40.3415 14.8304 39.2925 16.9061 39.0774 18.5288L38.4152 23.3834H29.9152L32.1499 8.24942ZM58.1446 8.24942H66.7664L64.4969 23.3841H56.1068L57.0529 20.7825L56.8638 20.7682C55.5055 22.4734 54.0444 23.8001 51.4655 23.8001C47.0553 23.8001 44.1932 20.391 44.1932 16.7887C44.1932 12.5999 47.6486 7.79036 52.9615 7.79036C55.7547 7.79036 57.0102 8.96905 58.1446 11.0365L58.2822 10.9922L58.1446 8.24942V8.24942ZM68.8383 8.24942H77.3059L76.5227 11.0358H76.7205C78.1049 9.2644 79.6269 7.80469 82.292 7.80469C85.3076 7.80469 87.9735 9.96902 87.9735 12.5999C87.9735 12.7704 87.9656 12.9492 87.9395 13.1258L86.4436 23.3841H77.8383L78.9648 15.5275C78.9893 15.3488 79.0154 15.1721 79.0154 14.9934C79.0154 14.4607 78.5597 13.9785 77.9229 13.9785C76.9863 13.9785 76.427 14.8168 76.3163 15.5275L75.1297 23.3841H66.6636L68.8383 8.24942ZM122.762 18.3446H130.859C129.622 22.1692 125.116 24 120.767 24C117.905 24 114.827 23.2367 112.816 21.3916C111.293 19.9899 110.546 18.0998 110.546 16.1878C110.546 10.9997 115.67 7.64166 121.403 7.64166C126.819 7.64166 131.289 10.9028 131.289 15.6844C131.289 16.1585 131.245 16.625 131.204 17.0991H119.1V17.4545C119.1 18.434 119.555 19.642 120.914 19.642C121.842 19.642 122.443 19.0267 122.762 18.3446V18.3446ZM103.256 0H111.74L108.32 23.3847H99.9733L100.798 20.7682H100.593C99.7059 22.5696 97.566 23.7926 95.2964 23.7926C90.9036 23.7926 88.6095 20.1386 88.6095 16.7369C88.6095 14.4164 89.4852 12.0965 91.1789 10.2807C92.5127 8.85786 94.5655 7.76786 96.7409 7.76786C97.8919 7.76786 99.0184 8.07889 99.9733 8.62799C100.919 9.1689 101.426 10.1696 101.847 11.0365H101.985V8.42745L103.256 0V0ZM148 9.17573L147.337 14.209C145.798 13.3707 143.735 12.4437 141.853 12.4437C141.311 12.4437 140.409 12.6224 140.409 13.2295C140.409 13.6667 141.028 13.9034 141.448 13.9785L144.07 14.4464C146.296 14.8379 147.792 16.5582 147.792 18.4927C147.792 22.3254 143.201 23.9563 139.385 23.9563C136.626 23.9563 134.013 23.2292 131.546 22.2217L132.431 16.8331C133.919 18.1598 136.385 19.331 138.56 19.331C139.067 19.331 139.918 19.0418 139.884 18.4927C139.849 18.0493 139.221 17.8331 138.801 17.7437L135.912 17.1066C133.919 16.6694 132.656 15.3202 132.656 13.548C132.656 10.087 136.559 7.77467 140.288 7.77467C142.944 7.77467 145.515 8.41927 148 9.17573V9.17573Z" fill="#333333"/>
<path fill-rule="evenodd" clip-rule="evenodd" d="M17.5111 5.91458L17.0982 8.79034H18.4992C19.6169 8.79034 20.8376 8.27194 20.8376 7.1601C20.8376 6.24813 19.6169 5.91458 18.7404 5.91458H17.5111ZM16.2897 14.209L15.7312 17.7368H17.7516C19.041 17.7368 20.3392 16.9217 20.3392 15.7355C20.3392 14.5794 19.0672 14.209 17.9328 14.209H16.2897ZM57.3621 15.6469C57.3621 14.7131 56.5457 13.7336 55.3844 13.7336C54.0096 13.7336 53.0547 14.8897 53.0547 15.9941C53.0547 16.9947 53.7944 17.9967 55.0664 17.9967C56.4255 17.9967 57.3621 16.7287 57.3621 15.6469ZM119.478 13.9641H123.406C123.302 13.0385 122.728 12.0815 121.48 12.0815C120.251 12.0815 119.659 13.0528 119.478 13.9641ZM101.297 15.58C101.297 14.638 100.472 13.6749 99.3032 13.6749C97.9283 13.6749 96.9822 14.8461 96.9822 15.9354C96.9822 16.9442 97.7297 17.9367 99.0018 17.9367C100.369 17.9367 101.297 16.67 101.297 15.58Z" fill="white"/>
</svg>
