<svg width="168" height="168" viewBox="0 0 168 168" fill="none" xmlns="http://www.w3.org/2000/svg">
<rect x="0.5" y="0.5" width="167" height="167" fill="white" stroke="#D0D0D0"/>
<path fill-rule="evenodd" clip-rule="evenodd" d="M76.6703 82.32L66.8502 82.6733L76.1745 83.1967L76.6703 82.32ZM75.4956 84.4044L65.6523 84.7581L75.0113 85.2833L75.4956 84.4044ZM74.321 86.5063L64.4899 86.8549L73.8375 87.3797L74.321 86.5063ZM73.1705 88.5976L63.3271 88.9518L72.6637 89.4756L73.1705 88.5976ZM85.2034 71.7989L72.6697 72.2495L85.239 72.955L85.2034 71.7989ZM85.124 69.7302L73.8644 70.1291L85.1596 70.7835L85.124 69.7302ZM85.0436 67.7349L75.0117 68.0683L85.092 68.6336L85.0436 67.7349ZM84.9761 65.6864L76.1827 65.9834L85.0108 66.51L84.9761 65.6864ZM84.919 64.0305H77.2711L84.9304 64.4409L84.919 64.0305ZM71.9844 90.688L62.1648 91.0472H71.784L71.9844 90.688Z" fill="black"/>
<path fill-rule="evenodd" clip-rule="evenodd" d="M105.263 64.0974H91.1113L90.71 64.8149L97.7918 65.1944C97.8749 65.1944 97.8749 65.3134 97.7562 65.3134L90.2973 65.5652L89.5778 66.837L96.6112 67.2567C96.7057 67.2687 96.6824 67.3996 96.5998 67.3996L89.1286 67.6477L88.4333 68.8656L95.4553 69.2594C95.6087 69.2714 95.6087 69.4029 95.4553 69.4029L87.9964 69.6671L87.2883 70.9408L94.287 71.3461C94.4404 71.3581 94.429 71.5011 94.287 71.5011L86.8281 71.7695L86.1077 73.0275L93.1178 73.4209C93.2237 73.4328 93.2365 73.5643 93.0945 73.5643L71.6022 74.2915L91.997 75.4361C92.1262 75.4361 92.1148 75.603 91.9728 75.603L70.4458 76.3782L90.8406 77.5223C90.9351 77.5223 90.9584 77.6773 90.8164 77.6773L69.2538 78.464L89.6486 79.6086C89.7317 79.6205 89.8134 79.7755 89.6372 79.7875L68.1088 80.5613L88.5031 81.7054C88.562 81.7174 88.6209 81.8723 88.4799 81.8723L77.6449 82.2625L77.6805 83.2502L87.3349 83.7921C87.4052 83.8041 87.4408 83.947 87.3107 83.947L77.7161 84.2915L77.7631 85.3964L86.1433 85.8668C86.2255 85.8788 86.2611 86.0457 86.1191 86.0457L77.8102 86.3404L77.8462 87.5528L84.9869 87.9535C85.0691 87.965 85.0928 88.12 84.9513 88.12L77.8818 88.375L77.9289 89.7086L83.83 90.0397C83.9131 90.0517 83.9131 90.1951 83.7949 90.1951L77.9526 90.4087L77.9763 90.9819H97.0258C102.077 90.9819 106.608 87.2622 107.458 84.3053C108.309 81.3489 108.309 78.6784 104.249 77.3434C106.515 76.8186 110.457 74.2366 111.236 70.6669C111.943 67.4236 110.763 64.1093 105.263 64.0974ZM95.6813 84.8029H89.8275L93.132 78.8896H97.4754C101.96 78.8896 99.7882 84.8029 95.6813 84.8029ZM103.258 72.1172C103.069 72.8324 101.652 74.6447 99.859 74.6447H95.5155L98.3004 69.6855H100.52C103.352 69.781 103.446 71.4024 103.258 72.1172ZM126.706 99.5505C126.706 97.259 124.82 95.3397 122.552 95.3397C120.224 95.3397 118.324 97.2895 118.324 99.6847C118.322 100.248 118.43 100.806 118.642 101.327C118.855 101.848 119.167 102.322 119.561 102.72C119.956 103.118 120.425 103.434 120.94 103.648C121.456 103.863 122.009 103.972 122.567 103.97C124.289 103.97 125.924 102.779 126.411 101.158H124.26C123.833 101.842 123.274 102.154 122.507 102.154C121.535 102.154 120.667 101.485 120.386 100.532H126.602C126.676 100.072 126.706 99.8479 126.706 99.5505ZM120.328 98.9768C120.608 97.8608 121.491 97.1465 122.581 97.1465C123.672 97.1465 124.526 97.8461 124.791 98.9768H120.328ZM98.7816 95.7368V96.405C98.1634 95.7354 97.2677 95.3545 96.3099 95.3545C94.1888 95.3545 92.3805 97.1843 92.3805 99.5652C92.3805 101.811 93.9802 103.826 96.3519 103.826C97.3978 103.826 98.1931 103.582 98.9441 102.719V103.776H100.742V95.7368H98.7816ZM96.5861 102.122C95.931 102.122 95.3027 101.859 94.8395 101.392C94.3763 100.924 94.116 100.289 94.116 99.6272C94.116 98.9655 94.3763 98.3309 94.8395 97.863C95.3027 97.3951 95.931 97.1322 96.5861 97.1322C97.2412 97.1322 97.8695 97.3951 98.3327 97.863C98.796 98.3309 99.0562 98.9655 99.0562 99.6272C99.0562 100.289 98.796 100.924 98.3327 101.392C97.8695 101.859 97.2412 102.122 96.5861 102.122ZM45.2121 95.3393C44.4023 95.3393 43.7836 95.6219 43.1057 96.3215V95.5329H41.2937V103.776H43.2532V99.8922C43.2532 98.8361 43.3413 97.1543 44.7848 97.1543C46.1398 97.1543 46.2873 98.7315 46.2873 99.7432V103.776H48.2463V99.3563C48.2463 98.1956 48.1582 97.6455 47.8486 96.9906C47.3921 96.0088 46.317 95.3393 45.2121 95.3393ZM57.3852 99.5505C57.3852 97.259 55.4997 95.3397 53.2312 95.3397C50.9038 95.3397 49.0037 97.2895 49.0037 99.6847C49.0014 100.248 49.1095 100.806 49.3219 101.327C49.5343 101.848 49.8467 102.321 50.241 102.72C50.6354 103.118 51.104 103.434 51.6197 103.648C52.1354 103.863 52.6881 103.972 53.2458 103.97C54.9692 103.97 56.6041 102.779 57.0903 101.158H54.94C54.5127 101.842 53.953 102.154 53.1869 102.154C52.2149 102.154 51.3457 101.485 51.0658 100.532H57.2816C57.356 100.072 57.3852 99.8479 57.3852 99.5505ZM51.0074 98.9768C51.2873 97.8608 52.1711 97.1465 53.2613 97.1465C54.3515 97.1465 55.2057 97.8461 55.471 98.9768H51.0074ZM89.6189 103.769H91.5779V92.7734H89.6189V103.769ZM105.91 95.3393C105.1 95.3393 104.481 95.6219 103.803 96.3215V95.5329H101.991V103.776H103.951V99.8922C103.951 98.8361 104.04 97.1543 105.483 97.1543C106.838 97.1543 106.986 98.7315 106.986 99.7432V103.776H108.945V99.3563C108.945 98.1956 108.856 97.6455 108.547 96.9906C108.09 96.0088 107.015 95.3393 105.91 95.3393ZM113.835 97.1548C114.733 97.1548 115.248 97.4527 115.735 98.2855H117.944C117.34 96.5152 115.794 95.3393 113.908 95.3393C111.522 95.3393 109.606 97.2586 109.606 99.6247C109.606 102.005 111.536 103.969 113.908 103.969C114.513 103.966 115.111 103.836 115.663 103.588C116.216 103.339 116.712 102.978 117.119 102.526C117.532 102.065 117.679 101.797 117.944 101.068H115.735C115.278 101.782 114.689 102.154 113.953 102.154C112.582 102.154 111.566 101.082 111.566 99.6538C111.566 98.2113 112.538 97.1548 113.835 97.1548ZM64.8733 100.562L63.4859 95.5334H61.9095L60.507 100.562L58.8484 95.5334H57.12L59.8446 103.776H61.0996L62.6906 98.4349L64.2369 103.776H65.554L68.1668 95.5334H66.547L64.8733 100.562ZM75.3695 95.348C74.4122 95.348 73.5164 95.7289 72.8978 96.3981V92.7739H70.9384V103.769H72.7353V102.713C73.4868 103.576 74.2821 103.819 75.328 103.819C77.6997 103.819 79.2994 101.805 79.2994 99.5583C79.2998 97.1779 77.491 95.348 75.3695 95.348ZM75.0933 102.122C74.4382 102.122 73.8099 101.859 73.3467 101.392C72.8835 100.924 72.6232 100.289 72.6232 99.6272C72.6232 98.9655 72.8835 98.3309 73.3467 97.863C73.8099 97.3951 74.4382 97.1322 75.0933 97.1322C75.7484 97.1322 76.3767 97.3951 76.8399 97.863C77.3032 98.3309 77.5634 98.9655 77.5634 99.6272C77.5634 100.289 77.3032 100.924 76.8399 101.392C76.3767 101.859 75.7484 102.122 75.0933 102.122ZM86.3506 95.7368V96.405C85.732 95.7354 84.8367 95.3545 83.8789 95.3545C81.7578 95.3545 79.9486 97.1843 79.9486 99.5652C79.9486 101.811 81.5487 103.826 83.92 103.826C84.9659 103.826 85.7612 103.582 86.5126 102.719V103.776H88.3096V95.7368H86.3506ZM84.1556 102.122C83.5004 102.122 82.8722 101.859 82.4089 101.392C81.9457 100.924 81.6855 100.289 81.6855 99.6272C81.6855 98.9655 81.9457 98.3309 82.4089 97.863C82.8722 97.3951 83.5004 97.1322 84.1556 97.1322C84.8107 97.1322 85.4389 97.3951 85.9022 97.863C86.3654 98.3309 86.6256 98.9655 86.6256 99.6272C86.6256 100.289 86.3654 100.924 85.9022 101.392C85.4389 101.859 84.8107 102.122 84.1556 102.122Z" fill="black"/>
</svg>
