<svg width="168" height="168" viewBox="0 0 168 168" fill="none" xmlns="http://www.w3.org/2000/svg">
<rect x="0.5" y="0.5" width="167" height="167" fill="white" stroke="#D0D0D0"/>
<path fill-rule="evenodd" clip-rule="evenodd" d="M45.2314 66.7754C38.3965 74.8022 31.8431 84.756 31.7774 92.1962C31.7518 94.9956 32.6455 97.4394 34.7891 99.2905C37.8742 101.956 41.2733 102.896 44.6558 102.902C49.5989 102.909 54.5073 100.915 58.3505 99.3769C64.823 96.7885 136.37 65.7185 136.37 65.7185C137.06 65.3726 136.931 64.9417 136.067 65.1568C135.718 65.244 58.1769 86.2578 58.1769 86.2578C56.7081 86.6732 55.1904 86.8904 53.6641 86.9038C47.7049 86.9391 42.4022 83.6313 42.4451 76.6608C42.4617 73.9334 43.2966 70.6442 45.2314 66.7754Z" fill="black"/>
</svg>
