<svg width="20" height="20" viewBox="0 0 20 20" fill="none" xmlns="http://www.w3.org/2000/svg">
<path d="M19.2379 17.7318L15.6319 14.1364C16.7953 12.6541 17.4266 10.8237 17.4243 8.93941C17.4243 7.26127 16.9267 5.62081 15.9943 4.22548C15.062 2.83016 13.7369 1.74263 12.1865 1.10043C10.6361 0.458236 8.93003 0.290207 7.28413 0.617597C5.63823 0.944987 4.12638 1.75309 2.93975 2.93972C1.75312 4.12635 0.945017 5.6382 0.617628 7.2841C0.290238 8.93 0.458266 10.636 1.10046 12.1864C1.74266 13.7368 2.83019 15.062 4.22551 15.9943C5.62084 16.9266 7.2613 17.4243 8.93944 17.4243C10.8238 17.4266 12.6542 16.7953 14.1364 15.6318L17.7319 19.2379C17.8305 19.3373 17.9478 19.4162 18.077 19.4701C18.2063 19.5239 18.3449 19.5516 18.4849 19.5516C18.6249 19.5516 18.7635 19.5239 18.8928 19.4701C19.022 19.4162 19.1393 19.3373 19.2379 19.2379C19.3373 19.1393 19.4162 19.022 19.4701 18.8928C19.5239 18.7635 19.5517 18.6249 19.5517 18.4849C19.5517 18.3449 19.5239 18.2062 19.4701 18.077C19.4162 17.9477 19.3373 17.8304 19.2379 17.7318ZM2.57581 8.93941C2.57581 7.6808 2.94903 6.45046 3.64827 5.40397C4.34752 4.35747 5.34138 3.54183 6.50418 3.06018C7.66699 2.57853 8.9465 2.45251 10.1809 2.69805C11.4154 2.94359 12.5492 3.54967 13.4392 4.43964C14.3292 5.32961 14.9353 6.4635 15.1808 7.69793C15.4263 8.93235 15.3003 10.2119 14.8187 11.3747C14.337 12.5375 13.5214 13.5313 12.4749 14.2306C11.4284 14.9298 10.1981 15.303 8.93944 15.303C7.2517 15.303 5.63309 14.6326 4.43967 13.4392C3.24626 12.2458 2.57581 10.6272 2.57581 8.93941Z" fill="#333333"/>
</svg>
