<svg width="16" height="20" viewBox="0 0 16 20" fill="none" xmlns="http://www.w3.org/2000/svg">
<path d="M8.00036 0C6.01455 0 4.38454 1.73385 4.38454 3.84615V4.61538H1.53649C1.13017 4.61538 0.793923 4.93139 0.768723 5.33692L0.0455595 19.1831C0.0208188 19.6267 0.373881 20 0.818193 20H15.1811C15.6259 20 15.9795 19.6265 15.9552 19.1823L15.232 5.33615C15.2064 4.93093 14.8703 4.61538 14.4642 4.61538H11.6162V3.84615C11.6162 1.73385 9.98617 0 8.00036 0ZM8.00036 1.53846C8.57575 1.53846 9.12757 1.78159 9.53442 2.21437C9.94128 2.64715 10.1699 3.23412 10.1699 3.84615V4.61538H5.83087V3.84615C5.83087 3.23412 6.05944 2.64715 6.4663 2.21437C6.87316 1.78159 7.42498 1.53846 8.00036 1.53846ZM2.16949 6.15385H4.38454V8.46154H5.83087V6.15385H10.1699V8.46154H11.6162V6.15385H13.8312L14.464 18.4615H1.53745L2.16949 6.15385Z" fill="#333333"/>
</svg>
