<svg width="168" height="168" viewBox="0 0 168 168" fill="none" xmlns="http://www.w3.org/2000/svg">
<rect x="0.5" y="0.5" width="167" height="167" fill="white" stroke="#D0D0D0"/>
<path d="M86.9023 79.3729C86.5131 79.3677 86.2098 79.2736 85.9937 79.091C85.7776 78.9084 85.6684 78.6684 85.6656 78.371H85.1299V85.7094H85.6656C85.6684 85.4124 85.7776 85.1719 85.9937 84.9893C86.2098 84.8068 86.5131 84.7126 86.9023 84.7075H93.5542V88.1729C92.9806 88.6882 91.9619 89.2552 90.4989 89.8741C89.0368 90.4929 87.0918 90.8308 84.6646 90.8863C82.6519 90.8896 80.8006 90.499 79.1117 89.715C77.4224 88.9301 76.0639 87.7371 75.0363 86.1324C74.0087 84.5286 73.4809 82.4971 73.4525 80.0397C73.4772 77.6891 74.012 75.7357 75.0564 74.1781C76.1003 72.6204 77.5059 71.4552 79.2718 70.6816C81.0377 69.9075 83.0159 69.5211 85.205 69.5225C86.9382 69.5461 88.5044 69.7861 89.9044 70.2406C91.3044 70.6957 92.4188 71.2228 93.2467 71.8213C94.0745 72.4199 94.4997 72.947 94.5197 73.4016C94.5127 73.7009 94.4885 73.9376 94.4427 74.1108L94.9785 74.4863L98.7263 67.6501L98.1859 67.3997C98.0968 67.5354 97.9756 67.6466 97.8331 67.723C97.6791 67.8101 97.5129 67.8552 97.3356 67.8585C97.1863 67.8477 96.7705 67.6825 96.0896 67.3635C95.4087 67.0444 94.5482 66.6392 93.5103 66.1479C92.3973 65.755 91.1214 65.4035 89.6832 65.0943C88.244 64.7851 86.7254 64.6223 85.1266 64.6044C82.3836 64.5959 79.7095 65.1409 77.1051 66.2378C74.5006 67.3352 72.3423 69.0355 70.631 71.3385C68.9197 73.6421 68.0326 76.5969 67.9691 80.2049C68.0106 83.8129 68.7947 86.7677 70.3216 89.0708C71.8481 91.3743 73.8687 93.0741 76.3831 94.1715C78.898 95.2684 81.6574 95.8134 84.6628 95.8049C86.9084 95.7757 89.0224 95.4825 91.001 94.9286C92.9797 94.3738 94.7237 93.7366 96.2301 93.0152C97.7365 92.2938 98.9036 91.6684 99.7319 91.1385V90.555C99.4841 90.499 99.3045 90.3922 99.1962 90.2359C99.0879 90.0806 99.0343 89.8388 99.0366 89.5108V81.2901C99.0431 80.8383 99.1169 80.5122 99.2592 80.3103C99.4011 80.1084 99.5719 79.9908 99.7721 79.9559V79.3724L86.9023 79.3729ZM117.251 74.2213C117.465 74.2215 117.676 74.1657 117.863 74.0595C118.048 73.9536 118.196 73.8082 118.307 73.6228C118.42 73.4296 118.479 73.209 118.478 72.9846C118.479 72.7616 118.42 72.5424 118.307 72.3508C118.199 72.1695 118.046 72.0196 117.863 71.9155C117.676 71.8091 117.464 71.7532 117.248 71.7532C117.033 71.7532 116.821 71.8091 116.633 71.9155C116.45 72.0193 116.296 72.1692 116.188 72.3508C116.074 72.5424 116.015 72.7616 116.016 72.9846C116.019 73.2246 116.077 73.4378 116.188 73.6228C116.299 73.8086 116.448 73.9541 116.633 74.0595C116.819 74.1653 117.025 74.219 117.251 74.2213ZM116.26 72.9842C116.262 72.7875 116.306 72.6124 116.393 72.4585C116.48 72.3046 116.597 72.1837 116.747 72.0948C116.9 72.0052 117.074 71.9583 117.251 71.9588C117.435 71.9606 117.603 72.0058 117.75 72.0948C117.898 72.1837 118.015 72.3046 118.101 72.4585C118.189 72.6124 118.233 72.7875 118.234 72.9842C118.236 73.1699 118.191 73.3529 118.101 73.5155C118.018 73.6662 117.897 73.792 117.75 73.8802C117.599 73.9697 117.426 74.0165 117.251 74.0157C117.076 74.018 116.904 73.9727 116.753 73.8847C116.603 73.7966 116.478 73.669 116.393 73.5155C116.304 73.3529 116.258 73.1699 116.26 72.9842ZM116.993 73.0821H117.237L117.607 73.6995H117.845L117.447 73.0722C117.543 73.0646 117.634 73.026 117.706 72.9621C117.774 72.9009 117.808 72.8068 117.811 72.6806C117.811 72.5409 117.77 72.4383 117.687 72.3729C117.605 72.3079 117.482 72.275 117.315 72.2759H116.781V73.699H116.993V73.0821ZM116.993 72.8999V72.4585H117.283C117.354 72.4549 117.425 72.4679 117.491 72.4966C117.553 72.5249 117.584 72.5818 117.588 72.6675C117.585 72.7733 117.551 72.8388 117.484 72.8656C117.408 72.8936 117.327 72.9052 117.246 72.8995L116.993 72.8999Z" fill="black"/>
<path d="M68.565 87.3926C68.0446 86.1648 67.696 84.8585 67.4851 83.5088C67.4249 83.1299 67.3762 82.7492 67.339 82.3672C67.2664 81.6513 67.2273 80.9324 67.2219 80.2128V80.1898C67.2358 79.2924 67.3056 78.3969 67.431 77.5084C67.4963 77.0557 67.5644 76.6754 67.662 76.2293C67.7506 75.8208 67.8388 75.4801 67.9569 75.0806C68.188 74.2787 68.4931 73.5004 68.8683 72.7559C69.2014 72.0795 69.5964 71.436 70.048 70.8336C70.2354 70.5811 70.4295 70.3338 70.63 70.0919V67.9714C70.6206 67.6312 70.6668 67.3898 70.7681 67.2453C70.8694 67.1004 71.0812 67.0303 71.4037 67.034V66.6011H65.9068V67.034C66.2302 67.0303 66.4468 67.1004 66.5564 67.2453C66.6656 67.3898 66.7165 67.6312 66.7081 67.9714V80.9032C66.7235 82.1681 66.5522 83.2199 66.1943 83.9903C65.8368 84.7606 65.2026 85.3173 64.2922 85.6637C63.3817 86.01 62.1049 86.1804 60.4613 86.1743C58.8182 86.1804 57.5409 86.0096 56.6304 85.6637C55.7204 85.3183 55.0862 84.7606 54.7283 83.9903C54.3708 83.2199 54.1996 82.1681 54.2145 80.9032V67.9714C54.2066 67.6312 54.257 67.3898 54.3666 67.2453C54.4763 67.1004 54.6924 67.0303 55.0162 67.034V66.6011H49.5212V67.034C49.8432 67.0303 50.056 67.1004 50.1564 67.2453C50.2581 67.3898 50.3038 67.6312 50.2945 67.9714V81.6528C50.3206 84.6086 51.2208 86.69 52.9942 87.8976C54.7675 89.1041 57.2567 89.6872 60.4613 89.6458C63.6664 89.6872 66.1556 89.1051 67.9289 87.8976C68.1557 87.7432 68.3671 87.5757 68.565 87.3926ZM92.6189 78.5653H96.894C96.8851 78.3959 96.88 78.2237 96.8781 78.0486C96.8973 76.2736 97.314 74.7983 98.126 73.6218C98.9389 72.4453 100.033 71.5653 101.407 70.9808C102.782 70.3964 104.322 70.1046 106.025 70.1051C107.375 70.1239 108.595 70.3046 109.684 70.6477C110.774 70.9912 111.641 71.3893 112.286 71.8416C112.931 72.2938 113.261 72.6919 113.277 73.0354C113.271 73.2613 113.251 73.4401 113.216 73.5714L113.634 73.8547L116.552 68.6919L116.131 68.5032C116.061 68.6062 115.967 68.69 115.857 68.747C115.738 68.8122 115.605 68.8474 115.469 68.8496C115.353 68.8411 115.03 68.7164 114.499 68.475C113.969 68.2345 113.3 67.9286 112.491 67.5573C111.625 67.2608 110.632 66.9954 109.512 66.762C108.392 66.5281 107.209 66.4048 105.964 66.3917C103.83 66.3856 101.748 66.7968 99.7196 67.6256L99.5764 67.6853L95.2242 75.6218L93.5765 74.4679L93.7206 73.8985C93.7304 73.8604 93.737 73.8279 93.743 73.7884V73.786C93.75 73.7408 93.7533 73.7027 93.758 73.6576C93.7654 73.5804 93.7678 73.5145 93.7706 73.4364L93.7668 73.4265C93.765 73.4246 93.765 73.4227 93.764 73.4213C93.748 73.3811 93.7273 73.3428 93.7024 73.3074L93.701 73.3056C93.6804 73.2748 93.6584 73.245 93.6353 73.2161C92.9842 74.6321 92.6417 76.2848 92.6081 78.1747C92.6109 78.3046 92.6137 78.4354 92.6189 78.5653ZM99.7836 84.4623V88.9686C101.57 89.6307 103.51 89.9592 105.603 89.954C107.352 89.9319 108.997 89.7107 110.538 89.2928C112.078 88.8731 113.435 88.3921 114.608 87.8472C115.781 87.3027 116.69 86.8298 117.335 86.4293V85.9879C117.141 85.9451 117.002 85.8651 116.917 85.747C116.832 85.6298 116.79 85.4467 116.792 85.1992V78.9921C116.798 78.651 116.855 78.4044 116.965 78.2528C117.075 78.1004 117.208 78.011 117.364 77.9851V77.5446H107.347C107.044 77.5404 106.808 77.4693 106.638 77.3314C106.557 77.2667 106.492 77.184 106.448 77.0897C106.404 76.9955 106.381 76.8922 106.383 76.7879H105.966V82.3305H106.383C106.386 82.1051 106.471 81.9248 106.638 81.7865C106.807 81.6486 107.043 81.578 107.347 81.5733H112.525V84.1907C112.078 84.5794 111.286 85.0077 110.147 85.4754C109.009 85.9427 107.493 86.1978 105.605 86.2397C104.039 86.242 102.599 85.947 101.282 85.355C100.75 85.1173 100.247 84.8177 99.7836 84.4623ZM52.7856 102.72H52.2522V102.384C52.2041 102.415 52.1406 102.46 52.0594 102.518C51.8952 102.633 51.7109 102.716 51.5162 102.763C51.4 102.792 51.2642 102.807 51.1084 102.807C50.8214 102.807 50.5778 102.713 50.378 102.524C50.1783 102.337 50.0789 102.096 50.0789 101.804C50.0789 101.565 50.1307 101.372 50.2343 101.224C50.3379 101.077 50.4858 100.96 50.6776 100.876C50.8718 100.791 51.1046 100.733 51.3767 100.704C51.6488 100.674 51.9404 100.651 52.2522 100.635V100.553C52.2522 100.433 52.2312 100.333 52.1882 100.254C52.1461 100.175 52.082 100.11 52.0039 100.067C51.9189 100.021 51.8262 99.9913 51.7304 99.979C51.4625 99.9416 51.19 99.9528 50.9259 100.012C50.7532 100.048 50.5745 100.101 50.3902 100.171H50.3612V99.6317C50.4658 99.603 50.617 99.5719 50.8148 99.539C51.008 99.5055 51.2036 99.4885 51.3996 99.4881C51.6236 99.4881 51.8191 99.507 51.9857 99.5432C52.1518 99.5804 52.296 99.6425 52.4174 99.731C52.5373 99.8176 52.6288 99.9296 52.6913 100.066C52.7543 100.204 52.7856 100.374 52.7856 100.578V102.72ZM52.2522 101.944V101.066C52.0888 101.075 51.8961 101.09 51.6749 101.108C51.4537 101.127 51.2782 101.154 51.149 101.19C50.995 101.234 50.8704 101.3 50.7752 101.393C50.68 101.484 50.6324 101.61 50.6324 101.77C50.6324 101.95 50.6879 102.087 50.7976 102.178C50.9082 102.269 51.0762 102.314 51.3025 102.314C51.4906 102.314 51.6628 102.279 51.8186 102.207C51.9745 102.133 52.1192 102.045 52.2522 101.944ZM61.5421 102.72H61.0059V102.37C60.8253 102.511 60.6526 102.619 60.487 102.695C60.3145 102.771 60.1279 102.809 59.9396 102.807C59.6045 102.807 59.3441 102.706 59.1579 102.503C58.9717 102.301 58.8784 102.003 58.8784 101.611V99.5634H59.4146V101.36C59.4146 101.519 59.4225 101.656 59.4374 101.771C59.4528 101.884 59.4855 101.981 59.5345 102.062C59.5858 102.146 59.6521 102.206 59.7342 102.243C59.8154 102.281 59.9349 102.3 60.0908 102.3C60.2294 102.3 60.381 102.265 60.5453 102.193C60.7105 102.122 60.8636 102.029 61.0059 101.919V99.563H61.5421V102.72ZM69.9566 101.812C69.9566 102.099 69.8362 102.335 69.5963 102.521C69.356 102.705 69.0274 102.797 68.6112 102.797C68.3755 102.797 68.159 102.769 67.962 102.714C67.7919 102.668 67.6263 102.607 67.4674 102.531V101.935H67.4963C67.6652 102.061 67.8533 102.161 68.061 102.236C68.2682 102.31 68.467 102.347 68.6569 102.347C68.8926 102.347 69.0769 102.31 69.2099 102.234C69.3429 102.16 69.4096 102.041 69.4096 101.879C69.4096 101.754 69.3732 101.66 69.3014 101.595C69.229 101.531 69.0904 101.477 68.8851 101.432C68.7861 101.41 68.6866 101.39 68.5869 101.372C68.4745 101.351 68.3627 101.327 68.2518 101.299C67.9728 101.226 67.7744 101.118 67.6573 100.976C67.5406 100.833 67.4818 100.658 67.4818 100.451C67.4818 100.322 67.5094 100.199 67.563 100.084C67.6172 99.9705 67.6993 99.867 67.8099 99.7775C67.9163 99.6886 68.0516 99.6185 68.2164 99.5667C68.3953 99.5131 68.5813 99.4869 68.768 99.4891C68.9584 99.4891 69.1506 99.5126 69.3457 99.5578C69.5137 99.5947 69.6769 99.651 69.832 99.7258V100.293H69.8035C69.6503 100.185 69.482 100.1 69.3042 100.041C69.1192 99.9737 68.9244 99.9387 68.7278 99.9371C68.5323 99.9371 68.3671 99.9743 68.2318 100.048C68.0969 100.122 68.0292 100.234 68.0292 100.381C68.0292 100.51 68.0703 100.608 68.152 100.674C68.2318 100.741 68.361 100.794 68.5398 100.835C68.6387 100.858 68.7493 100.881 68.872 100.904C68.9948 100.926 69.097 100.946 69.1786 100.966C69.4278 101.022 69.6196 101.119 69.7545 101.257C69.8894 101.396 69.9566 101.581 69.9566 101.812ZM78.1139 102.692C78.0053 102.721 77.8952 102.743 77.784 102.758C77.6787 102.774 77.5726 102.782 77.4662 102.784C77.1409 102.784 76.894 102.696 76.7246 102.523C76.5557 102.35 76.4708 102.073 76.4708 101.69V100.013H76.1086V99.5667H76.4708V98.6599H77.007V99.5667H78.1139V100.013H77.007V101.45C77.007 101.617 77.0107 101.746 77.0182 101.839C77.0261 101.932 77.0527 102.019 77.098 102.1C77.1395 102.176 77.1974 102.231 77.2706 102.266C77.3439 102.302 77.4554 102.318 77.6057 102.318C77.693 102.318 77.784 102.306 77.8792 102.28C77.9744 102.254 78.0425 102.233 78.084 102.216H78.113L78.1139 102.692ZM86.4845 100.145H86.456C86.379 100.127 86.3011 100.114 86.2227 100.104C86.1344 100.095 86.0456 100.091 85.9567 100.091C85.791 100.091 85.6314 100.127 85.4779 100.2C85.3239 100.272 85.176 100.366 85.0327 100.481V102.721H84.497V99.5663H85.0327V100.032C85.2455 99.8632 85.4326 99.7427 85.596 99.6717C85.7593 99.6016 85.9245 99.5653 86.0934 99.5653C86.1863 99.5653 86.254 99.5681 86.2964 99.5728C86.3389 99.5776 86.401 99.586 86.4845 99.5997V100.145ZM94.7991 102.72H94.2653V102.384C94.2172 102.415 94.1547 102.46 94.073 102.518C93.9089 102.634 93.7246 102.717 93.5298 102.763C93.3961 102.794 93.2591 102.809 93.1219 102.807C92.8349 102.807 92.5904 102.713 92.392 102.524C92.1923 102.337 92.0924 102.096 92.0924 101.804C92.0924 101.565 92.1443 101.372 92.2479 101.224C92.3519 101.077 92.4994 100.96 92.6912 100.876C92.8853 100.791 93.1182 100.733 93.3898 100.704C93.6614 100.674 93.9535 100.651 94.2653 100.635V100.553C94.2653 100.433 94.2443 100.333 94.2009 100.254C94.1583 100.175 94.0943 100.111 94.0165 100.067C93.9314 100.021 93.8385 99.9913 93.7426 99.979C93.4746 99.9416 93.2021 99.9528 92.938 100.012C92.7554 100.051 92.5761 100.104 92.4018 100.171H92.3729V99.6317C92.4784 99.603 92.6296 99.5719 92.8274 99.539C93.0248 99.5051 93.2194 99.4881 93.4122 99.4881C93.6357 99.4881 93.8312 99.507 93.9983 99.5432C94.164 99.5804 94.3086 99.6425 94.4304 99.731C94.5499 99.8176 94.6409 99.9296 94.7039 100.066C94.7669 100.204 94.7977 100.374 94.7977 100.578V102.72H94.7991V102.72ZM94.2653 101.944V101.066C94.0727 101.078 93.8802 101.092 93.688 101.108C93.5105 101.12 93.3344 101.148 93.1616 101.19C93.008 101.234 92.883 101.3 92.7882 101.393C92.693 101.484 92.645 101.61 92.645 101.77C92.645 101.95 92.7005 102.087 92.8102 102.178C92.9198 102.269 93.0888 102.314 93.3151 102.314C93.5032 102.314 93.6749 102.279 93.8303 102.207C93.9866 102.133 94.1323 102.045 94.2653 101.944ZM101.575 102.72H101.039V98.3253H101.575V102.72ZM108.591 99.0373H107.987V98.4863H108.591V99.0373ZM108.557 102.72H108.022V99.5653H108.557V102.72ZM117.474 102.72H116.94V102.384C116.893 102.415 116.828 102.46 116.747 102.518C116.583 102.633 116.399 102.716 116.205 102.763C116.071 102.794 115.934 102.809 115.797 102.807C115.51 102.807 115.266 102.713 115.067 102.524C114.867 102.337 114.767 102.096 114.767 101.804C114.767 101.565 114.819 101.372 114.922 101.224C115.026 101.077 115.175 100.96 115.366 100.876C115.56 100.791 115.792 100.733 116.065 100.704C116.356 100.673 116.648 100.65 116.94 100.635V100.553C116.94 100.433 116.919 100.333 116.875 100.254C116.833 100.175 116.769 100.11 116.691 100.067C116.606 100.021 116.513 99.9912 116.417 99.979C116.149 99.9415 115.877 99.9526 115.613 100.012C115.431 100.05 115.252 100.104 115.078 100.171H115.049V99.6317C115.154 99.603 115.304 99.5719 115.502 99.539C115.695 99.5055 115.891 99.4885 116.087 99.4881C116.311 99.4881 116.506 99.507 116.673 99.5432C116.839 99.5804 116.984 99.6425 117.105 99.731C117.226 99.8176 117.317 99.9296 117.38 100.066C117.443 100.204 117.474 100.374 117.474 100.578V102.72ZM116.941 101.944V101.066C116.777 101.075 116.585 101.09 116.363 101.108C116.186 101.12 116.01 101.147 115.837 101.19C115.683 101.234 115.558 101.3 115.464 101.393C115.368 101.484 115.32 101.61 115.32 101.77C115.32 101.95 115.376 102.087 115.486 102.178C115.596 102.269 115.764 102.314 115.991 102.314C116.169 102.317 116.344 102.28 116.507 102.207C116.663 102.132 116.808 102.045 116.941 101.944Z" fill="black"/>
</svg>
