<svg width="168" height="168" viewBox="0 0 168 168" fill="none" xmlns="http://www.w3.org/2000/svg">
<rect x="0.5" y="0.5" width="167" height="167" fill="white" stroke="#D0D0D0"/>
<path d="M52.0512 91.8583C52.0512 93.4932 50.6944 94.8202 49.6726 94.8202H38.1191L52.651 71.4742H33.2214V75.3431H34.2183C34.2183 73.7082 35.269 72.3853 36.2948 72.3853H46.2765L31.6577 95.7271H52.7378V91.8583H52.0512Z" fill="black"/>
<path d="M77.2636 93.8385L66.0204 71.4742L55.7161 93.8551C55.5341 94.346 54.5413 94.9658 53.1349 94.9658V95.723H58.62V94.9658C57.6024 94.9658 56.5103 94.4583 56.7751 93.851L59.2529 88.4471H68.7588L71.46 93.8385C71.7661 94.3834 70.3969 94.97 68.9863 94.97V95.7271H80.4033L80.4074 94.97C78.6783 94.9658 77.6235 94.425 77.2636 93.8385ZM59.6666 87.5735L63.7783 78.4963L68.3699 87.5735H59.6666Z" fill="black"/>
<path d="M81.7145 72.4102C83.3857 72.4102 84.7673 72.8429 84.7673 73.367C84.7673 77.5271 84.759 93.8135 84.7673 93.8135C84.7673 94.371 83.4063 94.9908 81.731 94.9908L81.7269 95.723H92.9039V95.0407C91.2452 95.0407 89.9008 94.3751 89.9008 93.8177V72.2064H93.1232C96.2256 72.2064 98.7407 74.7981 98.7407 77.7392C98.7407 80.6804 96.2256 83.0682 93.119 83.0682H90.8894C90.8894 83.0682 98.4428 94.5706 98.4552 94.5706C98.7531 95.0074 98.902 95.7271 98.902 95.7271H107.047V95.0449C105.479 95.0449 104.66 94.3918 104.205 93.8177L96.933 84.2746C100.424 84.0416 103.125 81.2045 103.125 77.8349C103.125 74.3155 100.118 71.4742 96.4076 71.4742H81.7145V72.4102Z" fill="black"/>
<path d="M131.933 93.8385L120.69 71.4742L110.386 93.8551C110.204 94.346 109.215 94.9908 107.804 94.9908V95.723H113.289V95.0407C112.272 95.0407 111.184 94.4583 111.444 93.851L113.922 88.4471H123.428L126.129 93.8385C126.439 94.3834 125.066 94.995 123.656 94.995V95.7271H135.072L135.077 95.0199C133.347 95.0199 132.293 94.425 131.933 93.8385ZM114.332 87.5735L118.443 78.4963L123.035 87.5735H114.332Z" fill="black"/>
</svg>
